<?xml version="1.0" encoding="utf-8"?>
<!-- Generator: Adobe Illustrator 15.0.2, SVG Export Plug-In . SVG Version: 6.00 Build 0)  -->
<!DOCTYPE svg PUBLIC "-//W3C//DTD SVG 1.1//EN" "http://www.w3.org/Graphics/SVG/1.1/DTD/svg11.dtd">
<svg version="1.1" id="Layer_1" xmlns="http://www.w3.org/2000/svg" xmlns:xlink="http://www.w3.org/1999/xlink" x="0px" y="0px"
	 width="595.28px" height="841.89px" viewBox="0 0 595.28 841.89" enable-background="new 0 0 595.28 841.89" xml:space="preserve">
<polygon id="polygon9" fill="#507282" points="287.467,328.474 290.264,328.509 293.078,328.645 295.853,328.869 298.639,329.191 
	301.413,329.586 304.175,330.083 306.925,330.668 309.624,331.342 312.323,332.104 314.998,332.951 317.635,333.888 
	320.246,334.898 322.821,335.995 325.357,337.18 327.869,338.453 330.319,339.8 332.719,341.218 335.093,342.726 337.405,344.296 
	339.667,345.941 341.879,347.671 344.028,349.467 346.128,351.325 348.14,353.256 350.114,355.242 352.014,357.3 353.851,359.421 
	355.613,361.592 357.312,363.826 358.925,366.124 360.462,368.455 361.924,370.835 363.323,373.269 287.393,414.967 "/>
<polygon id="polygon11" fill="none" stroke="#010101" stroke-width="0.75" stroke-linejoin="round" stroke-miterlimit="10.433" points="
	287.467,328.474 290.264,328.509 293.078,328.645 295.853,328.869 298.639,329.191 301.413,329.586 304.175,330.083 
	306.925,330.668 309.624,331.342 312.323,332.104 314.998,332.951 317.635,333.888 320.246,334.898 322.821,335.995 325.357,337.18 
	327.869,338.453 330.319,339.8 332.719,341.218 335.093,342.726 337.405,344.296 339.667,345.941 341.879,347.671 344.028,349.467 
	346.128,351.325 348.14,353.256 350.114,355.242 352.014,357.3 353.851,359.421 355.613,361.592 357.312,363.826 358.925,366.124 
	360.462,368.455 361.924,370.835 363.323,373.269 287.393,414.967 "/>
<polygon id="polygon17" fill="#737144" points="363.398,373.337 364.724,375.883 365.985,378.463 367.16,381.097 368.247,383.756 
	369.234,386.463 370.135,389.195 370.959,391.954 371.672,394.726 372.297,397.536 372.821,400.37 373.271,403.217 373.608,406.076 
	373.858,408.948 374.021,411.808 374.071,414.68 374.033,417.564 373.909,420.423 373.671,423.295 373.358,426.154 372.946,429.014 
	372.434,431.836 371.821,434.645 371.135,437.442 370.335,440.201 369.46,442.949 368.473,445.658 367.41,448.318 366.261,450.952 
	365.011,453.55 363.698,456.109 362.286,458.619 360.799,461.079 359.225,463.488 357.562,465.836 287.472,414.954 "/>
<polygon id="polygon19" fill="none" stroke="#010101" stroke-width="0.75" stroke-linejoin="round" stroke-miterlimit="10.433" points="
	363.398,373.337 364.724,375.883 365.985,378.463 367.16,381.097 368.247,383.756 369.234,386.463 370.135,389.195 370.959,391.954 
	371.672,394.726 372.297,397.536 372.821,400.37 373.271,403.217 373.608,406.076 373.858,408.948 374.021,411.808 374.071,414.68 
	374.033,417.564 373.909,420.423 373.671,423.295 373.358,426.154 372.946,429.014 372.434,431.836 371.821,434.645 
	371.135,437.442 370.335,440.201 369.46,442.949 368.473,445.658 367.41,448.318 366.261,450.952 365.011,453.55 363.698,456.109 
	362.286,458.619 360.799,461.079 359.225,463.488 357.562,465.836 287.472,414.954 "/>
<polygon id="polygon25" fill="#574109" points="357.562,465.924 355.888,468.158 354.139,470.331 352.326,472.454 350.452,474.502 
	348.502,476.487 346.49,478.422 344.416,480.295 342.278,482.094 340.092,483.816 337.854,485.465 335.556,487.051 333.206,488.562 
	330.819,489.984 328.369,491.346 325.907,492.619 323.383,493.806 320.821,494.917 318.234,495.953 315.61,496.902 312.961,497.764 
	310.273,498.525 307.574,499.213 304.85,499.812 302.101,500.311 299.352,500.735 296.59,501.072 293.803,501.322 291.025,501.484 
	288.243,501.547 285.446,501.522 282.663,501.41 279.881,501.21 277.107,500.923 274.35,500.549 271.602,500.086 268.867,499.524 
	266.158,498.875 263.464,498.15 260.793,497.326 287.574,415.004 "/>
<polygon id="polygon27" fill="none" stroke="#010101" stroke-width="0.75" stroke-linejoin="round" stroke-miterlimit="10.433" points="
	357.562,465.924 355.888,468.158 354.139,470.331 352.326,472.454 350.452,474.502 348.502,476.487 346.49,478.422 344.416,480.295 
	342.278,482.094 340.092,483.816 337.854,485.465 335.556,487.051 333.206,488.562 330.819,489.984 328.369,491.346 
	325.907,492.619 323.383,493.806 320.821,494.917 318.234,495.953 315.61,496.902 312.961,497.764 310.273,498.525 307.574,499.213 
	304.85,499.812 302.101,500.311 299.352,500.735 296.59,501.072 293.803,501.322 291.025,501.484 288.243,501.547 285.446,501.522 
	282.663,501.41 279.881,501.21 277.107,500.923 274.35,500.549 271.602,500.086 268.867,499.524 266.158,498.875 263.464,498.15 
	260.793,497.326 287.574,415.004 "/>
<polygon id="polygon33" fill="#5C4A56" points="260.681,497.377 257.996,496.453 255.325,495.454 252.705,494.355 250.106,493.169 
	247.559,491.895 245.051,490.547 242.59,489.111 240.178,487.588 237.819,486.002 235.512,484.341 233.266,482.593 231.068,480.77 
	228.945,478.896 226.876,476.937 224.879,474.901 222.945,472.816 221.071,470.668 219.284,468.458 217.561,466.186 
	215.916,463.863 214.354,461.479 212.871,459.057 211.46,456.584 210.137,454.062 208.901,451.489 207.739,448.893 206.68,446.258 
	205.693,443.586 204.81,440.876 204.016,438.154 203.293,435.395 202.682,432.623 202.146,429.825 201.711,427.004 201.373,424.182 
	201.125,421.335 200.964,418.513 200.904,415.653 200.93,412.807 201.052,409.959 201.262,407.125 201.574,404.291 287.54,415.142 
	"/>
<polygon id="polygon35" fill="none" stroke="#010101" stroke-width="0.75" stroke-linejoin="round" stroke-miterlimit="10.433" points="
	260.681,497.377 257.996,496.453 255.325,495.454 252.705,494.355 250.106,493.169 247.559,491.895 245.051,490.547 242.59,489.111 
	240.178,487.588 237.819,486.002 235.512,484.341 233.266,482.593 231.068,480.77 228.945,478.896 226.876,476.937 224.879,474.901 
	222.945,472.816 221.071,470.668 219.284,468.458 217.561,466.186 215.916,463.863 214.354,461.479 212.871,459.057 211.46,456.584 
	210.137,454.062 208.901,451.489 207.739,448.893 206.68,446.258 205.693,443.586 204.81,440.876 204.016,438.154 203.293,435.395 
	202.682,432.623 202.146,429.825 201.711,427.004 201.373,424.182 201.125,421.335 200.964,418.513 200.904,415.653 200.93,412.807 
	201.052,409.959 201.262,407.125 201.574,404.291 287.54,415.142 "/>
<polygon id="polygon41" fill="#010101" points="201.496,404.191 201.891,401.444 202.364,398.697 202.936,395.975 203.585,393.291 
	204.333,390.606 205.152,387.958 206.06,385.34 207.056,382.746 208.131,380.189 209.291,377.659 210.541,375.176 211.85,372.733 
	213.245,370.338 214.73,367.981 216.277,365.674 217.898,363.417 219.583,361.222 221.354,359.075 223.189,356.978 225.089,354.958 
	227.046,352.988 229.068,351.091 231.152,349.247 233.3,347.477 235.496,345.78 237.742,344.16 240.052,342.6 242.399,341.116 
	244.796,339.721 247.241,338.4 249.727,337.151 252.25,335.98 254.809,334.898 257.392,333.903 260.027,332.981 262.673,332.147 
	265.343,331.4 268.037,330.742 270.762,330.172 273.495,329.688 276.253,329.294 279.011,328.982 281.784,328.757 284.558,328.621 
	287.339,328.586 287.339,415.154 "/>
<polygon id="polygon43" fill="none" stroke="#010101" stroke-width="0.75" stroke-linejoin="round" stroke-miterlimit="10.433" points="
	201.496,404.191 201.891,401.444 202.364,398.697 202.936,395.975 203.585,393.291 204.333,390.606 205.152,387.958 206.06,385.34 
	207.056,382.746 208.131,380.189 209.291,377.659 210.541,375.176 211.85,372.733 213.245,370.338 214.73,367.981 216.277,365.674 
	217.898,363.417 219.583,361.222 221.354,359.075 223.189,356.978 225.089,354.958 227.046,352.988 229.068,351.091 
	231.152,349.247 233.3,347.477 235.496,345.78 237.742,344.16 240.052,342.6 242.399,341.116 244.796,339.721 247.241,338.4 
	249.727,337.151 252.25,335.98 254.809,334.898 257.392,333.903 260.027,332.981 262.673,332.147 265.343,331.4 268.037,330.742 
	270.762,330.172 273.495,329.688 276.253,329.294 279.011,328.982 281.784,328.757 284.558,328.621 287.339,328.586 
	287.339,415.154 "/>
</svg>
